<?xml version="1.0" encoding="utf-8"?>
<!-- Generator: Adobe Illustrator 25.2.0, SVG Export Plug-In . SVG Version: 6.00 Build 0)  -->
<svg version="1.1" id="Слой_1" xmlns="http://www.w3.org/2000/svg" xmlns:xlink="http://www.w3.org/1999/xlink" x="0px" y="0px"
	 viewBox="0 0 24 24" style="enable-background:new 0 0 24 24;" xml:space="preserve">
<style type="text/css">
	.st0{fill:#575757;}
</style>
<path class="st0" d="M7.2,0C3.5,0,0.5,3.1,0.5,7V17c0,3.8,3,7,6.7,7h9.7c3.7,0,6.7-3.1,6.7-7V7c0-3.8-3-7-6.7-7H7.2z M7.2,2.1h9.7
	c2.6,0,4.7,2.2,4.7,4.9V17c0,2.7-2.1,4.9-4.7,4.9H7.2c-2.6,0-4.7-2.2-4.7-4.9V7C2.5,4.2,4.5,2.1,7.2,2.1z M18.2,4.1
	c-0.8,0-1.4,0.6-1.4,1.4S17.4,7,18.2,7s1.4-0.6,1.4-1.4S18.9,4.1,18.2,4.1L18.2,4.1z M12,5.8c-3.3,0-5.9,2.8-5.9,6.2
	c0,3.4,2.7,6.2,5.9,6.2s5.9-2.8,5.9-6.2S15.3,5.8,12,5.8L12,5.8z M12,7.9c2.2,0,3.9,1.8,3.9,4.1s-1.8,4.1-3.9,4.1S8.1,14.3,8.1,12
	S9.8,7.9,12,7.9z"/>
</svg>
